HIERARCHY
ROOT Hips
{
	OFFSET -3.958830 18.904000 13.208200
	CHANNELS 6 Xposition Yposition Zposition Zrotation Yrotation Xrotation 
	JOINT LHipJoint
	{
		OFFSET 0.000000 0.000000 0.000000
		CHANNELS 3 Zrotation Yrotation Xrotation
		JOINT LeftUpLeg
		{
			OFFSET 1.800000 -1.400000 0.085000
			CHANNELS 3 Zrotation Yrotation Xrotation
			JOINT LeftLeg
			{
				OFFSET 2.215000 -6.000000 0.000000
				CHANNELS 3 Zrotation Yrotation Xrotation
				JOINT LeftFoot
				{
					OFFSET 2.500000 -6.900000 0.000000
					CHANNELS 3 Zrotation Yrotation Xrotation
					JOINT LeftToeBase
					{
						OFFSET 0.200000 -0.500000 1.950000
						CHANNELS 3 Zrotation Yrotation Xrotation
						End Site
						{
							OFFSET 0.000000 0.000000 0.000000
						}
					}
				}
			}
		}
	}
	JOINT RHipJoint
	{
		OFFSET 0.000000 0.000000 0.000000
		CHANNELS 3 Zrotation Yrotation Xrotation
		JOINT RightUpLeg
		{
			OFFSET -1.800000 -1.400000 0.085000
			CHANNELS 3 Zrotation Yrotation Xrotation
			JOINT RightLeg
			{
				OFFSET -2.215000 -6.000000 0.000000
				CHANNELS 3 Zrotation Yrotation Xrotation
				JOINT RightFoot
				{
					OFFSET -2.500000 -6.900000 0.000000
					CHANNELS 3 Zrotation Yrotation Xrotation
					JOINT RightToeBase
					{
						OFFSET -0.200000 -0.500000 1.950000
						CHANNELS 3 Zrotation Yrotation Xrotation
						End Site
						{
							OFFSET 0.000000 0.000000 0.000000
						}
					}
				}
			}
		}
	}
	JOINT LowerBack
	{
		OFFSET 0.000000 0.000000 0.000000
		CHANNELS 3 Zrotation Yrotation Xrotation
		JOINT Spine
		{
			OFFSET -0.087000 1.940000 -0.288900
			CHANNELS 3 Zrotation Yrotation Xrotation
			JOINT Spine1
			{
				OFFSET 0.000000 1.950000 0.060000
				CHANNELS 3 Zrotation Yrotation Xrotation
				JOINT Neck
				{
					OFFSET 0.000000 0.000000 0.000000
					CHANNELS 3 Zrotation Yrotation Xrotation
					JOINT Neck1
					{
						OFFSET 0.000000 1.600000 0.340000
						CHANNELS 3 Zrotation Yrotation Xrotation
						JOINT Head
						{
							OFFSET 0.000000 1.667000 -0.240000
							CHANNELS 3 Zrotation Yrotation Xrotation
							End Site
							{
								OFFSET 0.000000 0.000000 0.000000
							}
						}
					}
				}
				JOINT LeftShoulder
				{
					OFFSET 0.000000 0.000000 0.000000
					CHANNELS 3 Zrotation Yrotation Xrotation
					JOINT LeftArm
					{
						OFFSET 2.700000 1.550000 -0.730000
						CHANNELS 3 Zrotation Yrotation Xrotation
						JOINT LeftForeArm
						{
							OFFSET 5.450000 0.000000 0.000000
							CHANNELS 3 Zrotation Yrotation Xrotation
							JOINT LeftHand
							{
								OFFSET 3.450000 0.000000 0.000000
								CHANNELS 3 Zrotation Yrotation Xrotation
								JOINT LeftHandIndex1
								{
									OFFSET 0.750000 0.000000 0.000000
									CHANNELS 3 Zrotation Yrotation Xrotation
									End Site
									{
										OFFSET 0.000000 0.000000 0.000000
									}
								}
							}
						}
					}
				}
				JOINT RightShoulder
				{
					OFFSET 0.000000 0.000000 0.000000
					CHANNELS 3 Zrotation Yrotation Xrotation
					JOINT RightArm
					{
						OFFSET -2.700000 1.550000 -0.730000
						CHANNELS 3 Zrotation Yrotation Xrotation
						JOINT RightForeArm
						{
							OFFSET -5.450000 0.000000 0.000000
							CHANNELS 3 Zrotation Yrotation Xrotation
							JOINT RightHand
							{
								OFFSET -3.450000 0.000000 0.000000
								CHANNELS 3 Zrotation Yrotation Xrotation
								JOINT RightHandIndex1
								{
									OFFSET -0.750000 0.000000 0.000000
									CHANNELS 3 Zrotation Yrotation Xrotation
									End Site
									{
										OFFSET 0.000000 0.000000 0.000000
									}
								}
							}
						}
					}
				}
			}
		}
	}
}
MOTION
Frames: 7
Frame Time: 0.016667
0.677760 16.470000 -2.455280 0.141975 -17.335572 0.991341 -15.111982 12.408910 3.875179 10.149862 -6.280845 -28.136664 -8.950694 14.185277 44.906028 0.688336 8.854076 1.354189 0.326270 0.292080 0.170890 18.434970 -9.918412 3.339643 -21.952592 3.023720 -33.820649 11.923992 -12.923855 40.307182 -0.578596 -6.842882 1.814976 0.207150 0.028060 0.009560 -3.835046 -1.948678 -8.351610 6.558039 -1.586562 21.351078 -7.285685 0.145346 -1.351930 -0.340073 -8.885545 -7.257870 -18.890660 8.950113 31.262547 1.708940 3.457640 -8.807980 -24.619274 -1.601596 -0.461960 -27.723968 0.262413 -9.211022 19.690078 -50.976017 -8.567104 -3.469803 3.042021 0.192050 -0.035220 0.035850 0.125950 24.673311 7.789444 5.064170 43.380305 -2.348705 -8.904047 33.238894 28.927022 4.728657 2.407273 -1.560595 -0.047170 0.148130 -0.101840 -0.060100 
0.685600 16.426400 -2.455400 0.120042 -17.297779 0.746245 -15.123140 12.293493 3.930928 10.775837 -6.370157 -28.337494 -9.943915 14.979633 45.495708 0.764197 9.152390 1.258859 0.316300 0.279370 0.162190 18.446184 -9.806538 3.406914 -23.025144 2.919490 -33.944256 13.144313 -13.794317 40.828915 -0.632968 -7.135617 1.717594 0.195150 0.027320 0.007980 -3.854497 -1.950675 -8.445027 6.562848 -1.687951 21.809856 -7.613231 0.060639 -1.653676 -0.279880 -8.943622 -7.467381 -19.144598 9.090464 31.507007 1.822230 3.452030 -8.464180 -24.746734 -1.852200 -0.402689 -26.446008 0.944269 -9.178000 19.809195 -50.732868 -8.472745 -3.468403 3.051284 0.193790 -0.038330 0.034680 0.123900 24.712328 8.012241 5.371769 42.992730 -3.230129 -9.154166 34.646519 29.348418 5.063616 2.406802 -1.574242 -0.046010 0.142640 -0.097940 -0.058760 
0.704170 16.354270 -2.451080 -0.083410 -17.373900 0.208264 -15.134878 12.104060 4.009537 11.993616 -6.428746 -28.463731 -11.484035 16.353463 46.588757 0.895293 9.674237 1.094712 0.308750 0.266510 0.165900 18.470790 -9.639244 3.519220 -24.775823 2.727373 -34.190466 14.826194 -15.225041 41.972029 -0.738737 -7.626111 1.553486 0.178960 0.018230 0.007190 -3.904517 -1.913411 -8.598618 6.774779 -1.886795 22.666038 -8.352011 -0.066155 -2.070252 -0.050092 -8.834915 -7.741181 -19.148277 9.228598 32.240188 1.881490 3.568360 -8.259540 -24.998543 -2.296983 -0.382196 -24.225050 1.767862 -9.023095 19.506372 -50.093177 -8.056518 -3.466567 3.060694 0.205140 -0.048330 0.044520 0.118810 24.518893 8.257723 5.802960 42.169851 -4.453373 -9.375805 37.224527 29.653473 5.599935 2.411609 -1.588880 -0.043560 0.138830 -0.097540 -0.061450 
0.719050 16.280920 -2.445690 -0.505556 -17.561811 -0.459538 -15.160852 11.937314 4.103531 13.381387 -6.462451 -28.898004 -12.212426 17.659030 48.497635 1.030078 10.263696 0.909018 0.292220 0.239770 0.170800 18.480138 -9.485771 3.601541 -26.154311 2.597706 -34.260194 16.147620 -16.563824 43.261643 -0.840301 -8.084190 1.404578 0.158050 0.008700 0.003530 -3.908879 -1.897920 -8.753980 6.717163 -1.863339 23.607516 -8.744651 0.001370 -2.318440 0.198298 -8.398827 -8.016801 -18.517532 9.215149 33.338322 1.973870 3.797890 -7.797080 -24.996791 -2.721511 -0.340004 -22.019074 2.745049 -8.903426 18.419547 -50.511589 -7.548270 -3.463813 3.076480 0.219460 -0.055610 0.049890 0.106470 24.068207 8.342769 6.233997 41.540683 -5.988931 -9.803592 39.733324 30.327521 6.220220 2.411517 -1.600877 -0.048770 0.132930 -0.092030 -0.071720 
0.734950 16.209220 -2.428950 -0.887978 -17.625083 -1.253398 -15.190460 11.767216 4.205231 14.754150 -6.500294 -29.208522 -12.986216 19.101336 50.553587 1.178349 10.891231 0.716858 0.284390 0.224020 0.179040 18.486758 -9.345764 3.654035 -27.489029 2.351547 -34.047182 17.438434 -17.913795 44.341082 -0.944010 -8.511058 1.267436 0.143880 -0.001700 0.002460 -3.904650 -1.877757 -8.894466 6.566227 -1.866744 24.293107 -9.132122 0.005490 -2.260802 0.465448 -7.848175 -8.208654 -17.622926 9.104382 34.505478 2.133800 4.000020 -7.463610 -24.630860 -2.889817 -0.319573 -20.370219 3.612227 -8.829046 16.810902 -51.933610 -7.048236 -3.454407 3.100657 0.234890 -0.062700 0.058180 0.097940 23.201312 8.083290 6.507852 41.025331 -7.333972 -10.133865 42.774534 31.000082 7.001337 2.410837 -1.619706 -0.051900 0.127320 -0.090530 -0.081350 
0.744140 16.146390 -2.407380 -1.559931 -17.899977 -2.045407 -15.224883 11.695213 4.271922 16.048713 -6.354859 -29.189078 -13.257756 20.267650 52.458666 1.305086 11.410463 0.558888 0.282030 0.220840 0.181920 18.471668 -9.253010 3.652624 -28.056651 2.273380 -33.439544 18.473918 -18.851425 44.917024 -1.017010 -8.783456 1.183588 0.138680 -0.007060 0.003590 -3.851765 -1.936030 -8.974565 6.446920 -1.661257 24.649302 -8.724502 0.242821 -1.891949 0.533196 -7.511369 -8.324295 -17.211281 9.083983 35.490155 2.274350 4.121540 -7.044940 -24.215459 -2.796852 -0.311826 -19.739291 4.081545 -8.714346 13.159974 -54.020469 -5.840718 -3.447429 3.148403 0.237730 -0.063760 0.062480 0.093800 22.688454 7.814686 6.663060 39.920419 -8.494552 -10.300708 44.866593 31.592247 7.622239 2.402395 -1.642763 -0.049460 0.121210 -0.090490 -0.084110 
0.739900 16.089370 -2.375620 -2.117142 -18.265851 -2.821366 -15.266191 11.673751 4.282298 17.025085 -6.097155 -28.903503 -13.083983 21.105537 54.130141 1.394289 11.811321 0.439151 0.275940 0.216110 0.183060 18.445267 -9.182110 3.646935 -28.471088 2.253269 -32.755023 19.362825 -19.790451 45.661749 -1.090131 -9.069020 1.097836 0.139260 -0.002050 0.003830 -3.765875 -2.020123 -9.011771 5.954579 -1.343541 24.478683 -8.045897 0.443935 -1.356429 0.529560 -7.118152 -8.128719 -16.515582 9.161895 36.227307 2.254540 4.510100 -6.682390 -23.649556 -2.000015 -0.427244 -19.909057 4.548188 -8.711358 10.835242 -57.119648 -5.310609 -3.455896 3.182548 0.235630 -0.054140 0.058960 0.088050 22.147984 6.828420 6.391486 39.031828 -9.059290 -10.282083 46.119489 32.457017 8.292381 2.388893 -1.659550 -0.054840 0.122500 -0.085070 -0.088970 
